<svg width="24" height="24" viewBox="0 0 24 24" fill="none" xmlns="http://www.w3.org/2000/svg">
    <path stroke-width="1.5" d="M16.9393 6.23223L16.5858 6.58579L16.9393 6.23223L16.7678 6.06066L16.7445 6.03738C16.4311 5.72395 16.1611 5.45388 15.9157 5.2667C15.6528 5.0661 15.3604 4.91421 15 4.91421C14.6396 4.91421 14.3472 5.0661 14.0843 5.2667C13.8389 5.45388 13.5689 5.72395 13.2555 6.03739L13.2322 6.06066L6.03816 13.2547C6.02714 13.2658 6.01619 13.2767 6.00533 13.2875C5.84286 13.4496 5.69903 13.5932 5.59766 13.7722C5.4963 13.9512 5.44723 14.1484 5.39179 14.3711C5.38809 14.386 5.38435 14.401 5.38057 14.4162L4.71704 17.0703C4.71483 17.0791 4.7126 17.088 4.71036 17.097C4.67112 17.2537 4.62921 17.421 4.61546 17.5615C4.60032 17.7163 4.60385 17.9773 4.81326 18.1867C5.02267 18.3961 5.28373 18.3997 5.43846 18.3845C5.57899 18.3708 5.74633 18.3289 5.90301 18.2896C5.91195 18.2874 5.92085 18.2852 5.92971 18.283L5.92972 18.283L5.95149 18.2775L5.95151 18.2775L8.58384 17.6194C8.59896 17.6156 8.61396 17.6119 8.62885 17.6082C8.85159 17.5528 9.04877 17.5037 9.2278 17.4023C9.40683 17.301 9.55035 17.1571 9.71248 16.9947C9.72332 16.9838 9.73425 16.9729 9.74527 16.9618L16.9393 9.76777L16.9393 9.76776L16.9626 9.74448C17.2761 9.43108 17.5461 9.16105 17.7333 8.91573C17.9339 8.65281 18.0858 8.36038 18.0858 8C18.0858 7.63961 17.9339 7.34719 17.7333 7.08427C17.5461 6.83894 17.276 6.5689 16.9626 6.2555L16.9393 6.23223Z" stroke="#949494"/>
    <path stroke-width="1.5" d="M12.5 6.5L15.5 4.5L18.5 7.5L16.5 10.5L12.5 6.5Z" fill="#949494"/>
</svg>
